<?xml version="1.0" standalone="no"?>
<!DOCTYPE svg PUBLIC "-//W3C//DTD SVG 20010904//EN"
 "http://www.w3.org/TR/2001/REC-SVG-20010904/DTD/svg10.dtd">
<svg version="1.0" xmlns="http://www.w3.org/2000/svg"
 width="256.000000pt" height="256.000000pt" viewBox="0 0 256.000000 256.000000"
 preserveAspectRatio="xMidYMid meet">

<g transform="translate(0.000000,256.000000) scale(0.100000,-0.100000)"
fill="#000000" stroke="none">
<path d="M1525 2176 c-100 -32 -129 -61 -149 -148 l-11 -53 -340 -93 -340 -94
-79 11 c-68 9 -85 15 -112 42 -32 31 -34 32 -116 27 -95 -5 -185 -39 -213 -82
-11 -16 -22 -72 -31 -153 -29 -249 -29 -283 5 -454 16 -86 42 -250 56 -364 30
-238 47 -293 111 -364 62 -69 110 -86 217 -78 149 12 272 56 349 125 54 49 78
102 78 177 0 56 -14 168 -26 208 -5 15 2 17 54 17 154 0 270 138 273 323 l1
72 9 -59 c5 -32 11 -61 14 -64 2 -3 31 3 63 12 76 21 79 21 86 -9 11 -45 70
-92 128 -104 126 -26 245 34 287 144 11 28 11 28 6 -13 -3 -24 -15 -56 -26
-71 l-20 -28 40 -84 c48 -102 91 -163 132 -188 68 -42 177 -34 298 20 93 42
130 74 158 136 21 45 25 66 21 122 -5 94 -48 176 -207 397 l-129 179 5 86 c5
77 3 92 -19 140 -49 107 -180 202 -302 218 -41 6 -64 15 -84 34 -24 23 -36 27
-88 26 -32 0 -77 -6 -99 -13z m264 -77 c88 -14 162 -53 222 -116 62 -66 79
-105 79 -186 0 -79 -25 -122 -90 -154 -53 -27 -163 -41 -183 -25 -11 9 -13 6
-10 -16 6 -35 -40 -135 -74 -162 -60 -47 -179 -33 -245 29 -51 48 -57 85 -24
134 14 21 26 45 26 53 0 8 7 25 15 37 13 21 12 25 -25 61 -22 21 -45 56 -51
76 -13 42 -6 111 16 150 12 22 10 30 -11 75 l-25 50 35 -40 c32 -37 36 -38 53
-23 65 57 169 77 292 57z m-396 -199 c-5 -41 -1 -59 22 -105 15 -31 36 -61 46
-68 25 -16 24 -24 -5 -31 -36 -9 -84 -61 -95 -104 -13 -43 -1 -97 30 -136 15
-20 17 -27 7 -30 -44 -15 -151 -46 -157 -45 -3 0 12 9 34 20 l40 19 -45 -5
-45 -5 35 15 35 15 -37 -4 c-47 -6 -48 0 -5 18 l32 14 -40 -4 -40 -5 30 15 30
15 -40 -4 -40 -5 30 15 c17 8 36 14 44 15 8 0 12 2 9 5 -3 3 -24 2 -47 -4 -55
-12 -44 3 14 19 25 7 44 15 41 17 -2 2 -23 -1 -46 -7 -61 -16 -61 -5 0 15 61
20 60 30 -1 16 -57 -13 -61 -7 -7 13 l43 15 -37 -5 c-56 -9 -46 2 18 21 31 9
54 18 51 21 -3 3 -22 1 -44 -5 -68 -19 -70 -10 -3 14 78 28 74 30 -16 10 -36
-9 -68 -14 -70 -12 -3 2 30 14 71 27 97 28 93 35 -5 10 -108 -28 -119 -23 -20
10 102 34 97 37 -12 10 -115 -30 -119 -19 -5 15 53 15 95 30 93 32 -2 2 -50
-8 -106 -22 -56 -14 -104 -24 -106 -22 -3 2 38 17 91 32 52 16 93 30 91 32 -2
2 -41 -5 -86 -17 -45 -12 -84 -19 -86 -17 -3 2 32 15 77 28 93 27 92 38 -1 14
-92 -24 -84 -12 10 15 44 13 79 25 77 27 -2 2 -52 -8 -111 -23 -107 -25 -156
-29 -74 -5 132 39 179 54 176 57 -2 2 -37 -6 -78 -16 -76 -20 -126 -26 -80
-10 14 5 58 19 98 31 40 12 72 23 70 25 -2 1 -57 -11 -122 -27 -65 -16 -120
-28 -122 -26 -2 2 56 22 129 44 72 23 157 51 187 62 79 29 80 29 73 -29z
m-1100 -166 c206 97 485 27 561 -142 l18 -40 35 24 c39 26 110 32 160 13 41
-15 92 -68 103 -107 11 -40 -8 -138 -35 -178 -46 -71 -213 -70 -277 2 -34 38
-38 69 -17 111 11 21 18 48 17 61 -3 22 -3 22 -40 -8 -40 -33 -63 -87 -54
-125 6 -22 2 -25 -51 -37 -32 -7 -110 -13 -173 -12 -95 0 -125 4 -171 22 -154
61 -240 222 -177 333 l22 39 -23 48 -22 47 34 -39 33 -39 57 27z m1931 -254
c155 -216 189 -281 194 -372 3 -54 0 -76 -18 -113 -22 -45 -80 -95 -109 -95
-8 0 6 13 31 29 46 30 67 51 49 51 -5 0 -13 -5 -17 -11 -10 -16 -85 -49 -114
-49 -19 0 -14 5 25 24 28 12 56 31 64 40 12 15 9 14 -20 -3 -35 -21 -136 -47
-145 -38 -3 3 19 12 50 21 30 9 68 27 83 41 l28 24 -50 -24 c-27 -13 -75 -27
-105 -30 -61 -6 -48 5 31 25 25 6 59 22 75 35 l29 24 -49 -24 c-39 -20 -64
-25 -115 -24 l-66 1 57 9 c54 8 130 39 142 57 3 5 -14 0 -37 -12 -30 -15 -64
-21 -117 -23 -70 -2 -72 -1 -24 6 69 11 114 27 144 52 23 18 22 18 -18 -2 -50
-25 -175 -39 -186 -20 -5 8 9 11 46 11 48 0 158 38 158 55 0 3 -14 -2 -31 -10
-42 -22 -120 -34 -166 -25 l-38 8 46 1 c47 1 135 26 144 42 3 4 -13 2 -36 -6
-23 -8 -67 -14 -98 -14 l-56 1 60 12 c61 13 131 41 141 58 3 5 -12 0 -34 -11
-49 -25 -129 -36 -162 -22 -22 9 -19 10 25 11 28 0 69 9 93 20 50 23 57 35 7
14 -19 -8 -62 -13 -97 -13 -35 1 -49 4 -33 6 47 6 133 32 139 42 3 5 -15 3
-41 -5 -54 -16 -123 -19 -123 -4 0 6 17 10 38 10 20 0 56 9 80 20 50 23 57 35
7 14 -19 -7 -60 -13 -92 -13 l-58 1 53 9 c48 8 112 33 112 44 0 2 -19 -2 -41
-10 -23 -8 -62 -15 -88 -14 l-46 1 50 12 c28 7 64 21 80 30 17 10 21 14 10 10
-48 -16 -106 -23 -127 -14 -21 8 -19 9 12 10 19 0 54 9 78 20 50 23 57 35 7
14 -19 -7 -58 -14 -87 -13 l-53 1 55 12 c30 7 69 20 85 30 17 9 21 14 10 10
-44 -15 -110 -24 -129 -17 -16 5 -11 8 24 14 51 8 105 27 98 35 -3 2 -17 0
-32 -6 -15 -5 -48 -10 -74 -9 l-47 1 50 12 c28 7 59 18 70 25 l20 12 -20 -5
c-57 -14 -115 -18 -115 -7 0 6 10 11 23 11 21 0 127 44 127 53 0 2 -24 -4 -52
-14 -29 -10 -71 -18 -93 -18 l-40 0 55 18 c54 17 120 48 120 55 0 2 -23 -4
-50 -15 -86 -33 -102 -22 -25 17 39 19 79 44 90 55 10 10 23 15 27 11 4 -4 63
-86 132 -182z m-384 -120 c0 -102 -46 -202 -107 -233 -41 -21 -102 -29 -153
-18 -44 9 -44 9 30 11 l75 3 -73 7 c-98 11 -102 19 -8 18 42 0 80 2 83 6 4 3
-23 6 -58 7 -35 1 -75 4 -89 9 -15 4 8 6 55 4 l80 -3 -65 12 -65 12 75 6 c73
5 73 5 20 8 -30 2 -66 7 -80 12 -18 6 -12 7 25 4 28 -2 66 0 85 4 31 8 26 9
-35 11 -38 1 -79 5 -90 10 -12 5 12 7 60 4 l80 -3 -62 10 c-106 16 -111 25
-12 23 l94 -3 -78 9 c-98 10 -116 24 -22 16 63 -5 66 -4 25 5 -99 22 -104 26
-30 21 68 -4 81 -2 141 26 37 16 69 35 73 41 13 20 26 1 26 -39z m-1406 -89
c79 -15 154 -13 251 4 l80 14 22 -27 c12 -15 22 -37 23 -49 0 -13 11 -76 25
-140 14 -65 35 -161 46 -213 27 -127 27 -235 0 -289 -26 -51 -91 -90 -216
-130 -87 -28 -120 -34 -177 -32 -35 1 -99 58 -128 113 -19 37 -19 40 -3 34 12
-5 8 3 -11 23 -31 33 -29 38 7 20 18 -9 17 -6 -5 15 -33 31 -36 41 -9 26 35
-18 37 -10 4 16 -37 28 -46 54 -11 30 37 -26 40 -18 6 15 -31 29 -27 31 19 12
10 -4 2 8 -17 26 -32 30 -29 33 17 14 10 -4 2 7 -17 25 l-35 32 38 -15 c48
-20 47 -14 -4 19 -46 31 -47 46 0 22 47 -25 48 -19 2 15 -48 34 -49 49 -2 25
47 -25 48 -19 2 15 -24 17 -40 33 -37 36 3 3 11 1 18 -4 7 -6 24 -14 38 -18
19 -5 14 1 -17 24 -49 36 -56 48 -15 28 15 -8 38 -18 52 -21 23 -6 23 -6 5 5
-84 49 -119 87 -45 49 21 -11 47 -20 57 -20 11 1 4 7 -15 15 -38 17 -95 55
-89 61 2 2 21 -4 43 -15 21 -10 53 -21 69 -24 29 -6 28 -5 -5 9 -46 21 -102
55 -97 60 2 3 24 -5 48 -16 24 -11 53 -19 64 -19 12 0 3 7 -20 15 -22 8 -53
25 -70 39 l-30 24 53 -19 c76 -29 109 -25 38 5 -33 13 -67 31 -75 40 -12 12
-5 11 31 -5 25 -11 68 -22 95 -25 l48 -5 -53 15 c-58 16 -107 40 -117 55 -3 5
13 3 37 -6 24 -8 70 -17 103 -19 l60 -4 -51 9 c-56 10 -128 39 -159 64 -15 12
-9 11 25 -3 46 -20 155 -42 200 -40 14 1 -14 9 -62 19 -73 15 -175 56 -165 67
2 1 27 -7 56 -18 31 -11 87 -22 135 -24 l81 -4 -67 9 c-82 12 -163 42 -203 75
l-30 25 50 -24 c28 -13 77 -29 109 -35z m765 -176 c-38 -101 -126 -167 -221
-164 -13 0 7 8 45 18 37 10 73 23 80 30 7 7 -2 6 -25 -3 -21 -9 -61 -15 -90
-15 l-53 2 63 7 c83 9 90 19 10 15 l-63 -4 58 9 c32 5 65 14 75 20 15 10 15
10 -3 6 -58 -13 -99 -16 -85 -7 8 6 26 11 40 11 14 1 39 8 55 16 17 8 21 11
10 8 -11 -4 -49 -8 -85 -10 l-65 -3 63 8 c84 11 92 22 11 16 l-64 -4 54 10
c30 5 57 12 60 14 2 3 -27 6 -65 7 l-69 1 65 7 65 7 -60 3 -60 3 55 7 55 7
-45 2 -45 3 60 13 60 12 -75 3 -75 3 80 7 c84 7 159 34 185 65 14 17 15 15 18
-27 2 -28 -5 -66 -19 -103z"/>
<path d="M1742 2014 c-27 -19 -29 -60 -3 -74 50 -26 121 -1 121 43 0 21 -38
47 -70 47 -14 0 -36 -7 -48 -16z m68 -58 c19 4 22 3 10 -5 -23 -16 -45 -13
-71 9 l-24 20 30 -15 c16 -8 41 -12 55 -9z"/>
<path d="M1530 1957 c-18 -9 -25 -21 -25 -42 0 -36 35 -58 79 -50 39 7 56 23
56 50 0 12 -6 28 -13 34 -23 18 -70 22 -97 8z m56 -64 c13 2 21 0 18 -4 -11
-18 -84 -7 -84 12 0 6 10 5 21 -2 12 -6 32 -9 45 -6z"/>
<path d="M1888 1899 c-43 -24 -5 -89 52 -89 58 0 95 66 51 90 -25 13 -81 13
-103 -1z m62 -62 c28 -4 26 -4 -9 -3 -30 1 -46 6 -49 16 -4 12 -2 13 9 3 8 -6
30 -13 49 -16z"/>
<path d="M1672 1834 c-45 -31 -13 -84 51 -84 36 0 77 27 77 50 0 6 -9 19 -20
30 -24 24 -77 26 -108 4z m72 -58 c12 4 16 2 12 -5 -13 -21 -86 -5 -86 19 0 5
12 2 28 -5 15 -8 35 -12 46 -9z"/>
<path d="M1558 1714 c-34 -18 -48 -43 -48 -86 0 -103 143 -175 230 -115 59 39
64 98 13 158 -48 56 -136 76 -195 43z m196 -70 c24 -63 -39 -146 -101 -131
-15 3 -14 5 7 14 42 18 73 60 74 98 1 37 10 46 20 19z"/>
<path d="M1510 1511 c0 -10 40 -46 67 -60 27 -14 83 -14 103 0 12 8 9 9 -13 5
-39 -9 -105 11 -133 39 -13 13 -24 21 -24 16z"/>
<path d="M428 1686 c-25 -6 -50 -14 -53 -18 -4 -4 2 -23 14 -42 16 -26 35 -39
71 -51 57 -19 66 -16 75 25 5 23 1 37 -20 65 -15 19 -30 34 -34 34 -3 -1 -27
-6 -53 -13z m72 -47 c0 -6 -4 -7 -10 -4 -5 3 -10 11 -10 16 0 6 5 7 10 4 6 -3
10 -11 10 -16z"/>
<path d="M623 1617 c-44 -8 -53 -14 -62 -38 -9 -28 -8 -30 27 -45 30 -13 47
-13 91 -5 30 6 57 13 59 16 6 6 -48 86 -57 84 -3 -1 -29 -6 -58 -12z m38 -69
c-20 -5 -37 -6 -43 0 -5 5 9 9 34 9 l43 1 -34 -10z"/>
<path d="M930 1565 c-91 -49 -47 -184 71 -215 90 -25 171 41 149 121 -24 86
-143 137 -220 94z m200 -102 c0 -45 -54 -103 -96 -103 -29 0 -27 6 7 24 35 17
63 63 63 101 0 27 3 32 13 23 7 -6 13 -26 13 -45z"/>
<path d="M333 1539 c-18 -5 -33 -12 -33 -14 0 -18 53 -85 68 -85 45 0 93 22
107 50 20 39 20 38 -22 49 -45 13 -76 13 -120 0z m106 -18 c10 -7 11 -13 2
-27 -7 -11 -11 -13 -8 -4 2 8 -3 20 -12 27 -18 14 -3 17 18 4z"/>
<path d="M509 1481 c-10 -35 -9 -42 10 -70 25 -34 29 -35 86 -20 69 18 68 15
39 58 -19 29 -38 44 -72 55 -25 9 -47 16 -48 16 -2 0 -8 -18 -15 -39z m109
-46 c-3 -3 -9 2 -12 12 -6 14 -5 15 5 6 7 -7 10 -15 7 -18z"/>
<path d="M889 1342 c28 -53 129 -74 177 -37 18 14 17 14 -11 4 -43 -15 -110
-2 -146 29 -29 24 -31 24 -20 4z"/>
<path d="M1068 1123 c7 -3 16 -2 19 1 4 3 -2 6 -13 5 -11 0 -14 -3 -6 -6z"/>
<path d="M1078 1103 c7 -3 16 -2 19 1 4 3 -2 6 -13 5 -11 0 -14 -3 -6 -6z"/>
</g>
</svg>
